<?xml version="1.0" encoding="utf-8"?>
<!-- Generator: Adobe Illustrator 23.0.2, SVG Export Plug-In . SVG Version: 6.00 Build 0)  -->
<svg version="1.1" id="Capa_1" xmlns="http://www.w3.org/2000/svg" xmlns:xlink="http://www.w3.org/1999/xlink" x="0px" y="0px"
	 viewBox="0 0 1366 768" style="enable-background:new 0 0 1366 768;" xml:space="preserve">
<style type="text/css">
	.st0{fill:#261C17;stroke:#000000;stroke-width:20;stroke-miterlimit:10;}
	.st1{fill:#C1272D;}
	.st2{fill:#251C19;}
	.st3{fill:#261C17;}
	.st4{fill:#261D18;}
	.st5{fill:#2A201C;}
	.st6{fill:#2D231D;}
	.st7{fill:#231921;}
	.st8{fill:#32261C;}
	.st9{fill:#D4B302;}
	.st10{fill:#F7CC04;}
	.st11{fill:#FBCE00;}
	.st12{fill:#FBEE41;}
	.st13{fill:#F7CB03;}
	.st14{fill:#F6CB04;}
	.st15{fill:#F4CB04;}
	.st16{fill:#FACE02;}
	.st17{fill:#CCB503;}
	.st18{fill:#7F4064;}
	.st19{fill:#814164;}
	.st20{fill:#F9F134;}
	.st21{fill:#FEEF46;}
	.st22{fill:#7E3F5A;}
	.st23{fill:#8A4960;}
	.st24{fill:#FDCE08;}
	.st25{fill:#814163;}
	.st26{fill:#82435F;}
	.st27{fill:#85465D;}
	.st28{fill:#7F3F6B;}
	.st29{fill:#86465D;}
	.st30{fill:#F9CE0A;}
	.st31{fill:#FBCC0B;}
	.st32{fill:#FBF9FA;}
	.st33{fill:#803E6C;}
	.st34{fill:#FFFFFF;stroke:#000000;stroke-width:3;stroke-miterlimit:10;}
	.st35{fill:#C1272D;stroke:#000000;stroke-width:3;stroke-miterlimit:10;}
</style>
<rect x="208" y="37" class="st0" width="695" height="695"/>
<rect x="235" y="58" class="st1" width="644" height="644"/>
<g>
	<path class="st2" d="M433.31,254.43c28.46-22.48,61.22-34.84,96.57-41.25c4.32-0.78,9.8,0.77,11.44-6.57
		c2.64-11.77,0.41-15.69-11.94-14.81c-9.04,0.65-17.95,3.07-26.93,4.63c-6.08,1.06-12.85,2.4-16.07-4.54
		c-3.24-7,1.1-12.49,6.25-16.81c7.46-6.26,16.83-8.66,25.82-11.63c10.45-3.45,21.06-6.41,31.59-9.65c2.52-0.78,5.71-1.49,6.19-4.35
		c0.66-3.89-3.27-4.92-5.79-5.91c-5.63-2.21-11.54-3.75-17.36-5.45c-2.96-0.86-6.6-1.34-5.28-5.61c0.97-3.13,3.88-2.76,6.72-2.18
		c8.24,1.7,16.27,4.01,23.53,8.29c4.33,2.55,8.5,5.93,7.89,11.59c-0.6,5.54-5.1,8.44-9.9,10.02c-15.13,5-30.49,9.34-45.53,14.61
		c-6.45,2.26-14,4.17-16.22,12.89c8.26,2.32,15.39-1.28,22.67-2.57c29.49-5.22,31.89,1.92,42.46,21.89
		c2.67,5.04,6.17,3.58,9.49,3.57c16.56-0.03,32.88,1.29,48.55,7.13c0.9,0.33,1.52,1.39,2.27,2.11c-0.51,2.05-1.82,3.39-3.72,4.21
		c-16.67-0.22-33.18-2.66-49.89-3.27c-36.61-1.34-69.82,9.23-102.15,24.51c-3.79,1.79-7.55,3.62-11.18,5.7
		c-4.66,2.45-8.64,6.25-14.08,7.21C436.12,258.07,434.21,256.96,433.31,254.43z"/>
	<path class="st3" d="M495.48,350.25c-32.56,13.43-65.06,26.98-97.69,40.23c-15.59,6.33-29.57-1.7-32.43-18.7
		c-0.93-5.52-1.17-11.62,0.18-16.97c6.62-26.35,17.15-50.87,35.96-71.13c1.72,0.47,2.93,1.55,3.66,3.17
		c0.72,8.01-5.99,12.54-8.82,18.89c-6.54,9.8-11.75,20.27-15.71,31.36c-2.54,5.07-4.09,10.47-5.04,16.02
		c-0.62,3.64-1.85,7.85,1.93,10.33c3.41,2.24,6.37-0.62,9.18-2.36c4.15-2.56,8.13-5.37,12.13-8.17c7.07-4.53,14.68-8.01,22.23-11.59
		c3.83-1.82,7.81-3.14,12-0.93c3,5.59-2.33,6.34-5.08,7.94c-9.19,5.38-17.81,11.6-26.72,17.39c-2.55,1.66-5.03,3.41-7.22,5.53
		c-2.3,2.24-4.17,4.86-2.43,8.04c2.1,3.84,5.38,1.81,7.99,0.66c13.9-6.11,28.26-11.12,41.86-17.93c1.96-0.95,3.96-1.81,6-2.58
		c11.62-3.76,22.78-8.71,34.1-13.26c3.87-1.55,7.74-3.15,12.04-1.74C496.02,345.81,497.44,347.49,495.48,350.25z"/>
	<path class="st4" d="M682.62,255.53c21.03,18.16,31.77,59.43,21.28,83.91c-5.34,12.45,0.84,23.06,4.05,34.1
		c4.64,15.92-0.89,22.58-17.58,20.59c-4.76-0.57-8.17-2.57-9.06-7.19c-2.98-15.43-13.26-26.12-23.38-36.97
		c-0.64-1.69-0.25-3.24,0.59-4.74c8.09-4.87,9.82,3.59,14.11,6.72c1.77,2.64,3.62,5.22,5.74,7.61c2.91,3.53,4.95,7.7,8.09,11.05
		c1.98,2.12,4.43,3.21,7.14,1.59c2.22-1.33,2.93-3.9,2-6.04c-5.99-13.82-0.05-26.56,2.42-39.93c3.78-20.51-3.94-38.94-14.54-56.19
		c-2.37-3.86-5.86-7.09-6.38-11.94C677.53,254.25,679.3,253.23,682.62,255.53z"/>
	<path class="st5" d="M660.05,345.84c-0.7,1.38-1.41,2.76-2.11,4.14c-37.75-29.45-79.18-27.45-121.79-13.96
		c-13.69,4.33-27.11,9.47-40.66,14.24c-0.15-2.09-0.94-3.77-3.03-4.59c0.78-4.49,4.54-5.87,8.01-7.2
		c29.76-11.47,59.68-20.93,92.36-21.23c23.38-0.21,42.45,9.27,61.99,19.26C657.82,338.89,658.93,342.36,660.05,345.84z"/>
	<path class="st6" d="M682.62,255.53c-1.19,1.42-4.2-1.21-4.57,2.04c-2.28,0.31-4.05-0.8-5.79-2.03
		c-7.48-5.54-14.72-11.42-22.88-16.01c-6.65-4.99-14.43-7.46-22.14-10.15c-4.05-1.41-8.95-1.85-10.58-7.02
		c1.03-0.84,2.05-1.67,3.08-2.51c13.2-0.9,24.04,5.47,34.72,11.77C665.15,237.93,676.1,244.19,682.62,255.53z"/>
	<path class="st7" d="M404.41,286.72c-0.97-1.01-1.94-2.03-2.91-3.04c4.29-7.63,10.24-13.62,17.86-17.94
		c2.16-0.94,4.23-1.39,5.76,1.08c-0.58,8.11-7.82,11.05-12.42,16.05C410.24,284.8,408.16,287.57,404.41,286.72z"/>
	<path class="st8" d="M424.57,267.82c-1.74-0.7-3.48-1.39-5.22-2.09c3.72-4.91,8.63-8.36,13.95-11.31c1.91,0.91,3.82,1.83,5.72,2.74
		c0.08,4.45-3.71,5.88-6.35,8.21C430.13,266.68,428.25,270.28,424.57,267.82z"/>
	<path class="st9" d="M616.65,222.37c11.25,6.08,24.98,6.72,34.8,15.92c-3.12,3.4-6.93,2.41-10.49,1.32
		c-15.53-4.77-31.56-6.85-47.57-9.04c-43.32-2.49-85.27,3.71-125.65,19.84c-2.81,1.12-5.67,2.14-8.67,2.66
		c-3.3-0.3-7.85,3.31-9.28-2.92c50.12-30.11,103.62-40.64,161.16-27.87C612.78,222.67,614.75,222.35,616.65,222.37z"/>
	<path class="st10" d="M449.8,250.13c2.26,3.71,4.57,0.4,6.85,0.05c2.97,3.11,7.34,4.64,9.63,8.53c0.39,5.28-4.68,5.58-7.34,8.1
		c-0.74,0.63-1.5,1.22-2.23,1.84c-2.66,2.26-4.39,5.17-5.83,8.29c-3.43,4.48-1.17,11.72-7.2,14.94c-5.11-1.11-10.1-2.52-13.83-4.71
		c-0.81-1.95-0.72-2.95,0.06-3.16c9.87-2.74,9.65-8.01,3.92-14.89c-1.2-1.44-1.91-3.27-1.96-5.25c2.39-2.24,4.77-4.47,7.16-6.71
		C442.62,254.82,446.21,252.48,449.8,250.13z"/>
	<path class="st11" d="M431.87,263.88c5.47,1.64,7.68,7.54,9.69,11.1c5.81,10.29-5.8,7.46-10.81,10.8
		c4.83,1.41,10.56,0.12,12.43,5.89c1.72,0.95,3.15,2.43,3.35,4.26c1.67,15.08,12.48,23.02,23.67,30.71
		c0.65,0.89,0.94,1.88,0.81,2.98c-0.53,0.93-1.26,1.66-2.17,2.22c-3.62,1.81-7.7,2.49-11.22,4.58c-2.15,1.27-4.4,2.31-6.85,2.85
		c-1.9,0.49-3.75,1.13-5.48,2.1c-3.89,1.93-7.82,2.02-11.78,0.21c-13.29-0.25-22.98,8.66-34.26,13.5c-3.39,2.89-1.26-5.3-3.97-2.19
		c-6.08,6.97-6.23-3.98-10.18-3.02c-1.09,0.03-2.13-0.12-3.17-0.41c-6.47-3.14-4.61-8.32-3.32-13.37
		c3.35-11.34,8.46-21.83,15.3-31.47c6.95-6.66,14.1-13.17,16.85-22.92c4.6-4.62,9.2-9.25,13.8-13.87
		C427.01,266.51,429.44,265.19,431.87,263.88z"/>
	<path class="st12" d="M470.23,329.94c0.05-0.54,0.1-1.07,0.16-1.61c14.48-1.58,27.69-6.66,39.89-14.55
		c18.48-2.73,36.67-7.85,55.61-6.76c1.65,0.38,3.19,1.04,4.64,1.89c2.97,0.9,5.74,5.28,9.08,0.46c0.66-0.82,1.44-1.4,2.39-1.81
		c2.12-0.75,4.31-1,6.53-1.08c10.36,0.04,20.39,2.29,30.44,4.43c11.85,3.24,22.04,9.72,31.79,16.86c3.8,2.78,8.22,6.11,4.82,12.12
		c-38.51-24.54-79.14-23.95-120.89-10.24c-14.32,4.7-28.81,8.95-42.23,16.01c-3.52,0.91-7.03,1.81-10.55,2.72
		c-8.9,2.75-17.39,5.26-26.33-1.26c-4.56-3.33-6.53,2.59-8.19,5.83c-1.39,2.7,1.4,5.82,0.06,8.79c-1.52,0.84-3.03,1.67-4.55,2.51
		c-7.12-5.79-8.14-12.94-2.7-19.53c1.57-1.91,4.61-2.57,4.79-5.67c1.16-1.7,2.9-2.09,4.8-2.11c3.16,1.76,5.69,1.78,6.74-2.39
		c3.3-2.92,7.45-3.59,11.55-4.42c0.97,0.58,1.92,1.25,2.32,2.31c1.09,2.88-2.2,2.79-3.05,4.37
		C470.56,335.46,472.27,333.49,470.23,329.94z"/>
	<path class="st12" d="M444.99,339.06c1.94,1.31,2.46,3,0.39,4.4c-8.91,6.03-7.79,13.14-2.48,20.8
		c-14.64,6.27-29.23,12.66-43.96,18.72c-2.92,1.2-6.29,5.47-9.51-0.19c-3.1-5.45-2.49-10.48,2.37-13.85
		c10.19-7.08,21.05-13.21,31.2-20.35c3.45-2.43,8.39-2.68,10.51-7.02C437.03,339.3,441.7,342.3,444.99,339.06z"/>
	<path class="st13" d="M378.62,336.08c0.65,5.09-1.02,11.53,7.14,12.24c0.53,0.57,0.59,1.15,0.17,1.74
		c1.44-0.72-0.31-1.15-0.16-1.75c0.8-1.69,1.83-3.89,3.87-3.14c4.36,1.6-0.65,5.37,1.63,7.98c3.6-1.91,4.75-7.06,9.28-7.79
		c4.07,3.92-4.02,6.04-1.28,9.7c-5.5,3.91-10.75,8.27-16.58,11.6c-6.76,3.86-11.9,0.48-11.16-7.1
		C372.32,351.33,374,343.23,378.62,336.08z"/>
	<path class="st12" d="M447.44,361.75c-3.58-4.29-6.69-9.06-1.6-13.86c4.79-4.52,10.92-6.83,16.11-0.76
		c6.53,7.64,13.53-2.23,19.94,1.25C470.73,353.63,459.69,359.24,447.44,361.75z"/>
	<path class="st14" d="M410.77,281.7c3.57,14.39-9.61,16.47-16.85,22.92c2.06-6.81,9.04-10.73,10.49-17.9
		C406.53,285.04,408.65,283.37,410.77,281.7z"/>
	<path class="st11" d="M655.58,339.89c-1.13-10.99-11.72-12.49-18.39-17.59c-5.18-3.95-12.05-5.69-18.17-8.41
		c3.54-8.08,9.09-4.11,13.63-3.07c-4.44-3.54-9.97-1.09-15.43-0.53c-2.12,0.22-4.86,0.29-5.71-2.43c-0.65-2.06,0.65-4.25,2.58-4.33
		c11.06-0.49,15.75-6.76,16.66-17.09c0.11-1.22,1.91-2.27,4.43-1.82c0.94,5.34,3.84,10.41,4.98,16.12
		c-0.72-6.18-5.54-11.8-2.76-18.48c0.9-1.9,1.97-3.72,2.98-5.57c1.57-2.77,3.14-5.55,5.83-7.46c4.48-1.57,9.24-5.07,12.59,1.7
		c0.13-5.16,1.63-9.87,5.39-13.47c2.54-2.44,5.08-5.95,9.42-2.8c1.48,0.98,2.97,1.95,4.45,2.93c11.15,13.36,18.43,28.64,22.17,45.57
		c2.65,12,3.89,23.95-2.62,35.44c-4.77,8.43-1.9,16.84,0.61,25.34c1.13,3.84,4.77,8.95-1.79,11.73c-6.04,2.56-11.04,1.57-14.18-4.96
		c-1.8-3.73-4.11-7.22-6.2-10.81c-0.98-2.95-2.61-5.35-5.56-6.65c-3.93-1.81-5.07-7.59-10.43-7.37
		C657.86,344.37,655.07,343.37,655.58,339.89z"/>
	<path class="st15" d="M670.48,353.21c2.84,1.4,10.33-1.1,5.56,6.65C674.19,357.65,672.33,355.43,670.48,353.21z"/>
	<path class="st16" d="M639.52,282.16c-2.98,5.83,0.09,10.84,1.92,16.14c0.82,2.39,1.18,5.54-1.01,7.5
		c-1.58,1.42-3.74,0.17-5.15-1.01c-4.31-3.58,1.87-3.92,1.78-5.1c-0.33-4.54-1.73-9-4.12-14.56c2.26,16.29-6.15,21.36-20.48,21
		c10.06,2.64,21.27-1.76,29.14,8.78c-8.32,1.37-15.13-9.34-22.6-1.04c-10.59-2.04-21.12-4.55-31.99-4.58c0-5.05,4.19-4.46,7.11-4.81
		c4.51-0.53,8.63-1.66,12.26-4.42c6.54-1.39,17.27,0.01,14.82-10.29c-2.31-9.71-10.67-0.87-16.29-1.36
		c-3.86-0.07-6.11-2.25-7.41-5.67c-0.17-16.49-1.26-17.4-16.56-13.61c-3.09-0.78-4.35-2.95-4.56-5.95c0.1-1.08,0.38-2.11,0.81-3.11
		c1.61-3.39,2.78-6.97,4.74-10.25c3.8-6.36,7.34-12.34,15.12-4.08c0.9,0.96,2.79-0.53,4.19-1.02c1.07-0.06,1.98,0.3,2.7,1.11
		c1.84,3.07,2.01,6.74,3.53,9.92c1.71,3.49,4.16,5.34,8.18,3.78c0.81-0.55,1.61-1.1,2.35-1.72c3.32-10.77,1.82-12.44-12.16-13.53
		c-4.08-2.72-8.93,1.19-13.7-2.32c-3.13-2.31-5.91-3.23-6.41-7.68c-0.75-6.68,4.8-5.32,7.99-7.02c19.63,1.62,38.52,7.13,57.72,11
		c8.52,3.91,16.1,9.1,22.14,16.36c-9.27,1.65-10.78,9.51-13.49,16.56c-1.13,2.94-2.75,8.3-3.51-0.49c-0.26-3-5.86-0.59-9.02-0.11
		c-5.66-1.07-9.83-9.84-16.91-3.25c-1.66,1.65-2.04,3.59-1.27,5.78c0.55,1.12,1.23,2.15,2.05,3.09c0.9,0.87,1.84,1.69,2.88,2.39
		C636.1,279.73,638.37,280.15,639.52,282.16z"/>
	<path class="st11" d="M598.32,282.01c2.42,1.48,3.5,5.01,7.13,4.65c3.3,4.21,3.94,8.81,2.03,13.79c-0.39,5.43-3.92,6.59-8.63,6.79
		c-3.99,0.17-8.42-1.55-11.84,2.07c-2.31,0.08-4.62,0.16-6.94,0.23c-3.77,2.97-7.56,1.96-11.36,0.08
		c-15.33,0.2-30.53,1.74-45.41,5.5c-4.85,1.23-9.63,1.11-14.48,1.26c-1.01-2.29-0.16-4.43,0.55-6.58
		c8.23-24.92,2.77-37.8-20.41-48.07c-7.34-4.63-15.87,1.22-23.28-2.62c-3.77-2.21-8.93-3.03-9.03-8.94
		c14.32-4.61,28.56-9.51,42.99-13.77c30.75-9.08,62.32-10.29,94.09-9.13c-5.22,1.68-7.21,6.82-5.1,10.13
		c2.07,3.24,7.28,6.17,12.26,3.98c2.58-1.13,4.08-2.12,4.33,1.66c-0.3,1.43-1.13,2.3-2.62,2.47c-3.03,1.47-5.41,11.45-9.41,0.39
		c-1.45-4-3.86-2.79-6.34,0.57c-3.51,4.74-3.72,11.41-9.06,14.94c-0.6-0.48-1.19-0.98-1.96-0.29c0.71-0.45,1.36-0.35,1.96,0.3
		c0.81,2.39,1.61,4.79,2.42,7.18C582.96,277.53,588.65,282.46,598.32,282.01z"/>
	<path class="st17" d="M539.25,223c2.86,0,5.71,0,10.51,0C545.07,225.54,542.14,224.98,539.25,223z"/>
	<path class="st18" d="M490.22,259.16c26.21,9.4,33.09,30.54,18.61,57.22c-10.9,10.15-23.25,15.63-38.44,11.95
		c-17.05-6.3-25.58-18.93-27.2-36.67c2.96-5.23,0.8-12.32,6.08-16.71c8.29,2.12,3.88-6.74,7.49-8.67l0.11-0.08
		c2.58-1.05,4.76,0.5,5.57,2.24c2.42,5.19,6.62,5.62,11.39,5.27c1.38,2.65,1.32,5.33,0.23,8.04c-2.66,6.29-10.91,3.29-14.15,8.56
		c-0.38,1.55-0.57,3.73,0.67,4.22c8.21,3.21,15.09,6.93,17.1,17c0.76,3.8,5.75,2.08,6.51-1.3c1.77-7.88,5.86-12.5,13.88-14.3
		c3.02-0.68,2.77-4.09,1.68-6.78c-9.62-2.43-12.87-10.42-16.2-18.33c-3.04-2.03-6.9-0.25-9.98-2.12c-2.29-2.03-4.75-4.2-3.11-7.59
		c1.56-3.21,4.86-3.84,7.78-2.74C482.26,259.9,486.43,256.34,490.22,259.16z"/>
	<path class="st19" d="M490.22,259.16c-3.27,0.47-6.61,1.57-9.81,1.24c-2.93-0.3-6.1-2.29-8.1,0.91c-2.06,3.3,2.63,4.89,2.95,7.78
		c0.8,2.38,0.72,4.18-2.56,3.8c-2.94,2.69-5.43,9.24-9.3,0.47c-1.24-2.8-4.31-4.8-6.54-7.16c2.94-2.36,5.88-4.72,8.82-7.08
		C473.86,257.55,482.05,254.21,490.22,259.16z"/>
	<path class="st19" d="M456.75,266.29c-0.48,4.64,2.09,11.89-7.49,8.67C450.81,271.25,452.91,268.02,456.75,266.29z"/>
	<path class="st12" d="M470.23,329.94c1.74,0.83,4.25,2.47,3.21,3.89c-2.62,3.57-6.26,6.13-11.56,4.28
		c1.15-3.91,9.81-1.16,6.21-7.98C468.8,330,469.51,329.94,470.23,329.94z"/>
	<path class="st14" d="M424.44,276.36c0.77-3.33,2.71-5.37,6.26-6.98C430.69,274.19,427.51,275.33,424.44,276.36z"/>
	<path class="st12" d="M456.53,334.55c1.74,1.08,3.12,3.56,1.77,4.41c-2.97,1.87-6.12,0.6-8.51-2.02
		C452.04,336.14,454.29,335.35,456.53,334.55z"/>
	<path class="st14" d="M413.59,294.85c0.99,0.76,2.49,1.38,3.03,2.48c0.64,1.32-0.65,1.89-1.74,1.27c-1.14-0.63-2.03-1.7-3.03-2.57
		C412.32,295.7,412.8,295.38,413.59,294.85z"/>
	<path class="st20" d="M580.08,311.73c-3.03,4.62-6.08,2.41-9.13,0.02C573.99,310.09,577.03,310.06,580.08,311.73z"/>
	<path class="st21" d="M580.08,311.73c-3.04,0.01-6.09,0.01-9.13,0.02c-0.75-0.71-1.49-1.42-2.24-2.13
		c3.79-0.02,7.57-0.05,11.36-0.07C580.08,310.27,580.08,311,580.08,311.73z"/>
	<path class="st11" d="M385.76,348.32c2.83,1.8,2.16,4.46,2.18,7.58C383.63,353.86,384.54,351.13,385.76,348.32
		C385.75,348.32,385.76,348.32,385.76,348.32z"/>
	<path class="st22" d="M632.4,279.88c-0.96-0.67-1.91-1.35-2.87-2.02c1.37-3.22,4.02-3.73,6.52-3.75c-1.62-0.87-4.23,0.95-6.38-0.57
		c-2.03-2.27-3.61-4.64-1.66-7.75c10.78-7.22,12.89-6.7,19.57,4.81c-1.74,2.35-3.49,4.71-5.24,7.06
		C639.27,279.48,636.08,280.78,632.4,279.88z"/>
	<path class="st23" d="M632.4,279.88c3.1-1.72,6.32-2.88,9.95-2.22c-0.94,1.5-1.88,3-2.82,4.5
		C637.03,281.76,634.28,282.19,632.4,279.88z"/>
	<path class="st24" d="M690.4,294.92c-3.56-1.11-4.35-3.45-4.23-6.77C689.8,289.17,690.42,291.62,690.4,294.92z"/>
	<path class="st25" d="M598.32,282.01c-13.67,5.08-18.43,1.56-18.11-13.38c4.98-4.84,10.58-7.9,16.85-2.84
		C602.79,270.4,601.64,276.3,598.32,282.01z"/>
	<path class="st26" d="M607.48,300.45c-2.83-4.28-2.69-9-2.03-13.79c0.63-0.42,1.25-0.86,1.9-1.25c5.42-3.16,10.83-6.06,16.3-0.07
		c4.55,4.99,0.79,9.16-1.48,13.29C618.22,305.82,612.72,302.57,607.48,300.45z"/>
	<path class="st27" d="M602.6,245.54c0.87-0.82,1.75-1.65,2.62-2.47c6.39-1.75,12.96-3.19,16.9,4.04c2.8,5.14,2.25,10.21-3.23,13.76
		c-2.27-2.22-1.18-7.13-7.33-6.59c-3.21,0.28-5.67-5.52-7.99-8.99L602.6,245.54z"/>
	<path class="st28" d="M603.59,245.29c5.84,4.47,14.4,6.27,15.32,15.58c-0.51,0.57-1.15,0.83-1.92,0.78
		c-4.98,1.12-8.18-2.03-11.54-4.8C602.06,253.43,602.14,249.47,603.59,245.29z"/>
	<path class="st27" d="M605.44,256.85c3.85,1.6,7.69,3.2,11.54,4.8C611.22,264.65,606.88,264.24,605.44,256.85z"/>
	<path class="st29" d="M630.36,272.87c2.31,0.44,4.94-0.97,7.22,1.35c-2.79,1.26-5.42,2.45-8.05,3.64
		c-0.55-0.77-1.09-1.55-1.63-2.32C626.85,272.92,628.17,272.49,630.36,272.87z"/>
	<path class="st30" d="M648.66,253.96c-3.03-1.86-2.53-4.15-1.4-6.74C649.06,249.25,650.03,251.26,648.66,253.96z"/>
	<path class="st23" d="M630.36,272.87c-0.82,0.89-1.64,1.78-2.46,2.67c-2.77-3.28-2.64-6.53,0.11-9.74
		C628.79,268.15,629.58,270.51,630.36,272.87z"/>
	<path class="st31" d="M577.79,261.44c-1.83-0.11-1.92,4.54-4.61,1.76c-0.62-0.64-1.02-2.56-0.64-2.9
		C574.61,258.45,576.37,259.47,577.79,261.44C577.79,261.44,577.79,261.44,577.79,261.44z"/>
	<path class="st32" d="M472.7,272.89c0.85-1.27,1.71-2.53,2.56-3.8c2.82-0.38,5.39-3.86,8.5-0.68c1.72,0.83,4.09,2.19,3.74,3.77
		c-2.9,13.11,6.55,13.08,14.85,14.37c4.98,8.09,3.01,13.35-6.7,13.39c-6.7,0.03-8.36,2.54-8.07,8.61c0.23,4.85-1.53,9.61-7.37,9.35
		c-5.58-0.25-7.55-4.87-7.09-9.78c0.64-6.83-2.45-8.18-8.51-7.96c-8.11,0.3-10.87-4-8.1-11.69c3.62-6.29,12.58,0.65,15.88-6.41
		C472.5,279,472.6,275.95,472.7,272.89z"/>
	<path class="st19" d="M502.36,286.55c-15.82,3.81-14.77-9.65-18.59-18.14c2.32,0,4.76,0.35,5.77,2.6
		C493.81,280.42,495.72,282.89,502.36,286.55z"/>
	<path class="st19" d="M472.39,282.06c-2.64,8.71-11.89,1.06-15.88,6.41C459.42,280.43,468.23,286.99,472.39,282.06z"/>
	<path class="st33" d="M611.98,294.66c0.38-3.97,1.18-7.53,4.83-9.88C619.53,290.52,614.69,292.21,611.98,294.66z"/>
</g>
<g>
	<g id="XMLID_1_">
		<path class="st34" d="M904.88,503.41c4.26,0.3,6.25,3.11,4.72,7.1c-4.15,10.88-11.74,18.03-23.15,20.73
			c-7.78,1.84-15.66,2.69-23.61,1.11c-2.14-0.42-4.49-0.93-5.91-2.47c-3.38-3.67-6.31-2.28-10.25-0.69
			c-11.09,4.47-22.24,5.05-32.24-3.07c-1.93-1.57-2.52,0.07-3.45,0.82c-5.61,4.55-11.81,6.51-18.95,4.46
			c-7.39-2.13-11.12-8.21-9.06-15.68c1.85-6.65,4.31-13.13,6.57-19.66c0.64-1.85,1.44-3.69-0.68-5c-1.92-1.19-3.62-0.16-5.13,1.01
			c-3,2.32-4.39,5.66-5.59,9.07c-2.78,7.88-5.5,15.78-8.25,23.66c-0.71,2.06-1.44,4.14-3.24,5.52c-2.6,1.99-5.49,2.83-8.4,0.85
			c-2.67-1.82-2.74-4.5-1.72-7.35c3.25-9.08,6.49-18.17,9.71-27.26c0.66-1.86,1.91-3.96-0.37-5.44c-2.17-1.41-4.17-0.16-5.91,1.23
			c-2.23,1.78-3.32,4.29-4.23,6.91c-3.01,8.55-5.95,17.13-9.07,25.64c-2,5.49-4.42,6.81-10.27,5.75c-1.43-0.26-2.52,0.29-3.76,0.61
			c-6.31,1.6-12.4,1.61-17.44-3.17c-1.43-1.36-1.99-0.23-2.8,0.27c-6.04,3.64-12.16,4.39-18.32,0.46c-1.39-0.88-2.2-0.76-3.34,0.23
			c-4.65,4.05-10.17,6.49-15.98,8.33c-1.72,0.55-2.63,1.53-3.17,3.13c-1.18,3.4-2.32,6.82-3.65,10.17
			c-4.39,10.99-15.03,16.51-26.27,13.53c-5.72-1.51-9.82-5.01-10.94-11.02c-1.17-6.26,1.02-11.33,6.38-14.94
			c4.22-2.84,9.12-4,14.22-5.66c-3.76-1.52-7.43-2.44-10.26-5.12c-1.44-1.37-2.25,0.51-3.23,1.12c-5.26,3.28-10.74,5-16.8,2.37
			c-6.21-2.71-9.01-8.29-7.2-14.84c1.19-4.29,2.76-8.49,4.28-12.68c0.81-2.2,0.6-3.99-1.47-5.25c-2.15-1.3-3.95-1.97-5.03,1.48
			c-2.83,8.99-6.58,17.51-13.71,24.13c-10.88,10.1-31.76,11.43-41.04,2.35c-1.84-1.8-2.61-0.41-3.82,0.52
			c-7.01,5.39-15.06,7.98-22.99,3.69c-5.34-2.89-9.04-2.24-14.22-0.24c-8.68,3.35-17.98,3.96-27.29,2.15
			c-3.63-0.7-6.46-4.62-9.38-4.39c-2.9,0.23-5.83,3.37-9.31,3.98c-5.54,0.98-10.71,0.12-14.89-3.89c-1.39-1.34-2.09-1.67-3.74-0.3
			c-6.32,5.2-13.15,6.48-20.21,1.49c-1.79-1.27-2.69,0.06-3.8,0.62c-4.71,2.35-9.55,3.18-14.68,1.71
			c-8.06-2.32-11.65-8.65-9.2-16.71c1.93-6.32,4.16-12.57,6.38-18.8c0.62-1.74,1.17-3.33-0.54-4.69c-1.85-1.47-3.57-0.53-5.15,0.53
			c-2.47,1.67-4.06,3.99-5.05,6.83c-3.17,9.12-6.36,18.21-9.7,27.26c-2.5,6.8-5.24,7.77-11.61,4.18c-1.21-0.68-1.86-0.03-2.75,0.26
			c-11.92,4.01-23.51,4.39-34.27-3.33c-1.41-1.01-2.01-0.23-2.85,0.56c-4.97,4.61-10.94,7.5-17.26,9.62
			c-2.37,0.8-3.41,2.17-4.16,4.38c-1.43,4.22-2.63,8.54-4.84,12.46c-5.94,10.52-19.26,14.14-29.14,7.94
			c-8.14-5.11-8.99-15.74-1.83-22.13c4.48-3.99,10.01-5.56,15.88-7.04c-3.54-3.41-6.55-4.05-11.36-1.92
			c-9.42,4.18-19.65-0.69-21.76-9.19c-0.92-3.65-0.19-7.15,1.11-10.58c4.06-10.78,8.1-21.57,12.15-32.35
			c1.03-2.76,2.3-5.77-0.84-7.8c-2.84-1.83-5.58-0.33-7.92,1.56c-2.91,2.35-4.43,5.61-5.64,9.06c-4.95,14.14-9.9,28.27-14.88,42.39
			c-0.57,1.62-1.14,3.3-2.07,4.73c-2.17,3.3-6.63,4.42-9.94,2.69c-3.76-1.96-3.8-5.17-2.6-8.56c4.93-13.99,9.94-27.95,14.92-41.92
			c0.29-0.82,0.62-1.61,0.85-2.45c0.7-2.65,1.86-5.74-0.8-7.61c-3.03-2.13-5.81,0.1-8.14,2.04c-2.58,2.14-4.28,4.96-5.41,8.19
			c-5.03,14.42-10.15,28.81-15.27,43.19c-0.53,1.47-1.06,3.01-1.9,4.32c-2.13,3.32-6.53,4.55-9.87,2.95
			c-3.34-1.6-4.36-4.5-2.87-8.86c2.61-7.63,5.35-15.21,8.04-22.82c4.41-12.48,8.85-24.95,13.23-37.45c2.88-8.21,7.15-9.59,14.16-4.3
			c1.08,0.82,1.47,0.53,2.42-0.03c7.59-4.44,12.37-4,18.58,2.01c1.53,1.48,2.23,1.01,3.48-0.03c3.08-2.54,6.7-3.84,10.62-4.47
			c11.62-1.84,20.42,7.52,17.03,18.83c-3.48,11.59-7.84,22.9-11.81,34.33c-0.43,1.23-0.92,2.44-1.31,3.67
			c-0.86,2.72-2.48,6.01,0.49,7.89c3.31,2.11,5.54-1.14,7.56-3.27c2.52-2.66,3.69-6.13,4.86-9.53c2.57-7.48,5.01-15.01,7.63-22.46
			c1.62-4.61,4.68-6.3,8.54-4.99c3.78,1.28,5.2,4.62,3.64,9.14c-3.14,9.12-6.38,18.21-9.6,27.31c-0.59,1.68-1.32,3.42,0.43,4.74
			c1.67,1.25,3.4,0.29,4.85-0.58c3.12-1.84,4.94-4.73,6.09-8.12c2.85-8.46,5.75-16.9,8.64-25.34c0.42-1.23,0.75-2.51,1.31-3.66
			c1.68-3.44,5.35-4.81,8.76-3.37c3.13,1.32,4.56,4.64,3.31,8.27c-3.64,10.62-7.38,21.2-11.08,31.81c-0.42,1.2-0.79,2.41-1.31,4.01
			c4.04-1.81,6.96-4.28,9.65-7.06c0.57-0.59,1.3-1.49,1.24-2.19c-0.76-8.45,3.35-15.67,5.76-23.31c2.16-6.86,4.54-13.66,7.05-20.4
			c5.27-14.16,19.78-20.03,32.21-13.15c8.55,4.73,10.17,19,2.9,25.52c-2.59,2.32-5.49,2.48-8.39,0.77c-2.73-1.6-3.35-4.09-2.41-7.11
			c0.84-2.71,2.13-5.75-1.28-7.64c-2.55-1.42-7.11,0.59-8.4,4.3c-3.73,10.84-9,21.19-10.76,32.69c-0.16,0.99-0.49,1.95-0.82,2.91
			c-1.89,5.54-0.96,7.96,4.21,10.87c9.72,5.47,23.48,0.29,27.54-10.63c5.52-14.84,10.76-29.79,16.14-44.69
			c0.78-2.16,1.39-4.43,3.18-6.06c2.06-1.87,4.33-3.01,7.05-1.47c2.99,1.68,3.61,4.54,2.78,7.49c-1.45,5.23-3.28,10.36-4.95,15.53
			c1.09,0.65,1.99-0.17,2.94-0.31c9.43-1.37,16.91,6.53,14.5,15.77c-1.85,7.09-4.39,14-6.63,20.99c-0.43,1.34-1.36,2.71,0.13,3.96
			c1.6,1.33,3.23,0.86,4.82-0.02c3.56-1.96,6.06-4.87,7.41-8.67c2.92-8.28,5.76-16.59,8.65-24.88c0.48-1.36,0.89-2.76,1.56-4.02
			c1.79-3.4,5.01-4.62,8.34-3.3c3.26,1.29,4.8,4.48,3.51,8.19c-3.01,8.7-6.22,17.35-9.34,26.01c-0.29,0.81-0.62,1.61-0.91,2.43
			c-0.56,1.51-1.21,3.2,0.16,4.45c1.59,1.47,3.32,0.38,4.75-0.52c3.51-2.21,6.12-5.22,7.53-9.2c2.89-8.14,5.79-16.28,8.71-24.41
			c0.43-1.22,0.88-2.45,1.49-3.58c2-3.7,5.21-4.95,8.66-3.29c3.61,1.73,4.41,4.58,3.1,8.28c-3.33,9.36-6.6,18.74-9.86,28.13
			c-0.54,1.55-1.89,3.33,0.06,4.69c1.77,1.24,3.69,0.4,5.25-0.68c2.65-1.8,4.85-3.91,5.72-7.29c1.21-4.69,3.4-8.79,8.24-10.93
			c1.01-0.44,1.67-1.92,2.28-3.03c2.67-4.94,5.28-9.91,7.88-14.89c1.51-2.9,3.43-5.4,6.65-6.45c3.68-1.21,6.98-0.5,9.06,2.92
			c1.91,3.13,1.86,6.69-1.04,9.05c-2.47,2.01-2.02,3.63-0.81,5.79c1.34,2.39,2.52,4.86,3.91,7.22c2.62,4.42,4.43,9.06,3.93,14.62
			c2.37-0.74,4.02-1.93,4.77-4.07c2.6-7.47,5.13-14.95,7.7-22.46c-5.8-1.13-7.84-3.53-6.2-7.3c1.27-2.91,3.83-3.88,6.77-3.58
			c2.58,0.26,3.76-0.66,4.55-3.17c1.73-5.48,3.87-10.84,5.79-16.27c0.89-2.55,2.64-4.12,5.21-4.69c4.94-1.1,8.81,3.17,7.22,7.98
			c-1.73,5.19-3.56,10.33-5.37,15.56c1.14,1.04,2.46,0.47,3.65,0.53c2.18,0.1,4.09,0.63,4.82,2.91c0.81,2.51-0.18,4.54-2.19,6.09
			c-1.42,1.1-3.11,1.78-4.86,1.4c-4.8-1.04-6.43,1.54-7.6,5.62c-1.73,6.08-3.92,12.03-6.04,17.99c-0.75,2.13-1.52,4.16,0.33,6.03
			c1.97,1.99,4.38,2.05,6.83,1.14c5.1-1.86,8.25-5.73,10.17-10.59c2.49-6.26,4.59-12.69,7.12-18.93
			c2.54-6.26,7.07-10.42,13.84-11.86c7.35-1.56,13.96-0.34,18.69,5.86c4.1,5.38,3.79,11.4,0.67,17.13
			c-3.73,6.84-9.67,10.14-17.5,9.66c-1.84-0.11-3.85-0.38-5.42-1.24c-3.56-1.95-4.14,0.56-4.23,2.83c-0.15,3.68,2.3,5.72,5.57,6.82
			c8.61,2.9,19.72-1.88,24.56-10.87c2.11-3.89,4.16-7.85,5.64-12.09c1.41-4.03,2.95-7.54,0.96-12.2c-2.08-4.9,1.99-10.87,6.74-11.65
			c4.61-0.75,8.5,2.51,9.06,8.09c0.18,1.74,0.93,2.13,2.19,2.57c1.5,0.52,2.98,1.09,4.41,1.78c8.51,4.15,10.56,9.14,7.38,17.95
			c-1.56,4.34-3.19,8.66-4.71,13c-0.49,1.39-0.76,2.95,0.75,3.91c1.31,0.84,2.59,0.04,3.56-0.76c1.88-1.55,4.13-3.15,4.35-5.72
			c0.99-11.86,6.59-22.31,9.94-33.45c1.08-3.58,2.3-7.14,3.78-10.56c5.65-13.02,20.98-19.15,33.18-13.37
			c6.24,2.96,10.36,9.56,9.96,15.95c-0.28,4.38-2.93,7.39-6.77,7.65c-4.43,0.3-7.03-1.83-7.99-6.56c-0.86-4.28-3.37-5.83-7.57-4.51
			c-4.47,1.41-7.29,4.57-8.79,8.89c-3.73,10.74-7.97,21.29-10.95,32.28c-1.21,4.44,1.13,7.81,5.69,8.13
			c6.18,0.43,10.63-2.45,13.23-9c2.44-6.15,4.48-12.46,6.86-18.64c1.06-2.73,2.53-5.27,6.12-5.2c5.38,0.1,8.03,3.44,6.25,8.66
			c-2.74,8.03-5.92,15.92-8.91,23.87c-0.6,1.57-1.14,3.16-1.89,5.23c5.88-3.05,10.23-6.48,12.14-12.67c2.17-7,4.87-13.85,7.58-20.68
			c4.22-10.62,13.2-14.41,23.78-10.23c1.3,0.51,2.3,1.09,3.82-0.07c2.9-2.23,6.26-2.35,9.19-0.04c3.05,2.4,2.24,5.59,1.14,8.72
			c-3.05,8.69-6.09,17.4-9.09,26.11c-0.68,1.98-2.12,4.35,0.23,5.87c2.07,1.35,4.12-0.23,5.91-1.45c2.76-1.88,4.18-4.66,5.26-7.72
			c3.16-8.97,6.35-17.92,9.61-26.85c1.71-4.68,5.79-6.75,10.3-4.83c1.91,0.82,3.37,0.78,5.2,0.24c4.35-1.28,8.69-1.03,12.37,1.79
			c1.78,1.36,2.88,1.09,4.53,0.07c3.56-2.22,7.55-2.82,11.67-2.43c9.05,0.87,13.93,7.77,11.42,16.46
			c-1.95,6.78-4.22,13.47-6.44,20.17c-0.53,1.58-1.2,3.11,0.37,4.34c1.44,1.13,3,0.62,4.48-0.13c4.4-2.21,6.87-6.05,8.54-10.43
			c2.41-6.31,4.48-12.75,7.02-19c2.69-6.61,7.72-10.61,14.79-11.97c9.78-1.88,18.65,3.41,20.37,12.19
			c1.76,8.94-5.23,18.79-14.55,20.5c-3.64,0.67-7.33,0.69-10.6-1.03c-3.42-1.8-3.85,0.62-4.02,2.65c-0.32,3.71,2.09,5.81,5.32,6.98
			c8.64,3.14,19.29-1.68,22.79-10.16c0.65-1.56,1.42-3.51,2.73-4.3c8.01-4.84,9.96-13.72,14.31-20.97c1.8-3,3.43-6.05,6.96-7.36
			c2.74-1.03,5.38-0.88,7.75,0.96c2.44,1.88,3,4.45,2.57,7.36c-0.2,1.34-0.66,2.74-1.74,3.36c-3.3,1.88-2.11,4.14-0.84,6.48
			c1.02,1.9,2.02,3.82,3.12,5.67c2.82,4.76,5.09,9.68,4.46,16.04c4.58-2.52,7.03-6.09,8.8-10.2
			C899.91,505.03,901.55,503.17,904.88,503.41z M871.67,522.06c3.37-1.23,4.35-4.17,4.35-7.29c0-3.81-1.04-7.35-5.05-10.56
			c3.33,9.24,0.31,14.35-8.53,15.22C865.23,522.65,868.23,523.31,871.67,522.06z M832.31,500.46c4.16,0.23,6.55-2,6.54-6.32
			c-0.17-1.98-0.67-4.41-4-4.41c-2.97,0-6.77,5.07-6.54,8.69C828.48,501.15,830.86,500.37,832.31,500.46z M717.89,498.06
			c-0.16-2.52,0.03-4.88-2.6-5.74c-2.13-0.69-3.8,0.49-4.69,2.18c-3.37,6.38-5.51,13.24-7.01,20.24c-0.68,3.14,2.12,4.78,4.97,3.19
			c1.21-0.67,2.4-1.73,3.1-2.91C714.78,509.63,716.38,503.68,717.89,498.06z M652.07,551.17c2.08-2.28,2.47-5.39,3.85-8.59
			c-3.49,0.6-6.15,1.62-8.61,3.04c-1.94,1.11-3.37,2.78-3.33,5.18c0.03,1.44,0.95,2.38,2.38,2.65
			C648.72,553.91,650.58,552.81,652.07,551.17z M581.24,494.81c0.03-3.25-1.47-5.18-3.95-5.11c-3,0.08-6.75,4.94-6.59,8.67
			c0.12,2.78,2.52,1.99,3.95,2.08C578.8,500.71,581.22,498.48,581.24,494.81z M498.2,521.91c3.71-1.84,4.28-5.26,3.96-8.83
			c-0.38-4.29-2.39-7.1-4.91-7.53c3.59,7.32,0.29,12.99-8.43,13.83C491.95,522.72,494.96,523.5,498.2,521.91z M296.64,551.65
			c2.58-2.26,2.89-5.66,4.22-9.1c-3.5,0.8-6.5,1.63-9.03,3.48c-2.17,1.6-4.22,3.92-2.02,6.47
			C291.92,554.95,294.63,553.4,296.64,551.65z"/>
		<path class="st35" d="M876.02,514.76c0,3.12-0.98,6.06-4.35,7.29c-3.44,1.26-6.44,0.6-9.23-2.64c8.85-0.88,11.87-5.98,8.53-15.22
			C874.98,507.41,876.02,510.95,876.02,514.76z"/>
		<path class="st35" d="M838.85,494.14c0.01,4.32-2.38,6.56-6.54,6.32c-1.45-0.09-3.83,0.69-4-2.04c-0.23-3.62,3.57-8.69,6.54-8.69
			C838.18,489.73,838.67,492.16,838.85,494.14z"/>
		<path class="st35" d="M715.29,492.31c2.64,0.86,2.44,3.23,2.6,5.74c-1.51,5.62-3.11,11.57-6.24,16.95
			c-0.69,1.18-1.88,2.25-3.1,2.91c-2.85,1.59-5.65-0.05-4.97-3.19c1.5-7,3.63-13.86,7.01-20.24
			C711.49,492.8,713.17,491.62,715.29,492.31z"/>
		<path class="st35" d="M655.92,542.59c-1.38,3.2-1.77,6.31-3.85,8.59c-1.49,1.64-3.35,2.74-5.72,2.28
			c-1.42-0.28-2.35-1.21-2.38-2.65c-0.03-2.4,1.39-4.07,3.33-5.18C649.77,544.21,652.43,543.18,655.92,542.59z"/>
		<path class="st35" d="M577.29,489.7c2.48-0.07,3.97,1.86,3.95,5.11c-0.02,3.67-2.44,5.9-6.59,5.65c-1.43-0.1-3.83,0.69-3.95-2.08
			C570.55,494.65,574.29,489.78,577.29,489.7z"/>
		<path class="st35" d="M502.16,513.08c0.32,3.57-0.25,6.99-3.96,8.83c-3.24,1.6-6.25,0.81-9.38-2.52
			c8.72-0.84,12.02-6.51,8.43-13.83C499.78,505.97,501.78,508.79,502.16,513.08z"/>
		<path class="st35" d="M300.86,542.55c-1.33,3.44-1.63,6.84-4.22,9.1c-2.01,1.75-4.72,3.3-6.83,0.85c-2.2-2.55-0.15-4.87,2.02-6.47
			C294.36,544.18,297.36,543.35,300.86,542.55z"/>
	</g>
</g>
</svg>
